<?xml version="1.0" standalone="no"?>
<!DOCTYPE svg PUBLIC "-//W3C//DTD SVG 20010904//EN"
 "http://www.w3.org/TR/2001/REC-SVG-20010904/DTD/svg10.dtd">
<svg version="1.0" xmlns="http://www.w3.org/2000/svg"
 width="400.000000pt" height="400.000000pt" viewBox="0 0 400.000000 400.000000"
 preserveAspectRatio="xMidYMid meet">

<g transform="translate(0.000000,400.000000) scale(0.100000,-0.100000)"
fill="#000000" stroke="none">
<path d="M1725 3979 c-165 -29 -240 -48 -350 -84 -74 -25 -200 -76 -265 -108
-68 -33 -253 -144 -286 -170 -124 -100 -210 -176 -264 -233 -281 -296 -455
-640 -532 -1049 -18 -101 -22 -154 -22 -335 0 -181 4 -234 22 -335 82 -434
280 -808 583 -1100 297 -286 635 -458 1054 -537 173 -32 496 -32 670 0 264 50
507 142 719 274 119 74 116 71 100 124 -7 24 -18 80 -24 125 -31 227 -94 434
-165 541 -121 184 -250 284 -396 308 -35 5 -67 10 -71 10 -15 0 -8 18 31 87
93 163 181 475 181 640 0 102 17 186 45 230 13 18 15 37 11 72 -3 25 -10 136
-14 247 -5 110 -12 206 -17 213 -14 23 -7 169 10 201 20 39 19 85 -5 161 -37
120 -148 215 -315 269 -22 7 -49 19 -60 26 -11 7 -49 24 -85 39 -36 14 -79 33
-97 41 -20 9 -39 11 -54 6 -16 -6 -40 -3 -76 9 -29 11 -61 19 -72 19 -14 0
-19 5 -16 20 2 11 -1 20 -6 20 -6 0 -7 5 -3 12 15 24 11 68 -5 68 -14 0 -14 2
-2 9 21 13 22 41 3 41 -14 0 -15 2 -3 9 16 10 23 71 8 71 -6 0 -6 5 -1 13 5 6
9 21 9 32 0 18 -7 20 -95 22 -52 0 -117 -3 -145 -8z m256 -852 c5 -6 23 -6 52
2 25 6 73 11 106 11 80 0 120 -26 154 -100 24 -52 39 -92 37 -98 0 -1 6 -15
14 -31 9 -16 13 -31 10 -34 -3 -3 1 -16 10 -29 18 -28 24 -180 9 -218 -12 -29
-30 -47 -53 -52 -8 -2 -23 -11 -34 -20 -35 -31 -117 -43 -215 -30 -106 14
-261 6 -314 -16 l-38 -16 22 -17 c18 -13 27 -14 40 -6 10 6 21 8 25 5 9 -10
-5 -28 -23 -28 -20 0 -79 -45 -93 -70 -6 -11 -8 -31 -4 -45 6 -25 10 -26 63
-24 63 3 121 -8 121 -22 0 -5 -5 -9 -10 -9 -6 0 -4 -10 5 -23 10 -16 39 -31
88 -46 76 -23 124 -21 134 5 3 8 11 14 18 14 7 0 19 14 27 30 7 17 16 30 20
30 5 0 16 7 26 15 9 8 37 32 62 53 25 21 52 41 60 44 24 8 60 -10 60 -30 0
-10 4 -22 9 -27 5 -6 16 -37 26 -70 9 -33 28 -95 41 -137 33 -106 32 -148 -5
-187 -30 -32 -30 -32 -67 -16 -20 8 -51 15 -69 15 -35 0 -85 -33 -85 -55 0
-23 30 -45 62 -45 26 0 29 -2 18 -15 -7 -8 -24 -15 -37 -15 -16 0 -27 -7 -30
-20 -3 -11 -14 -20 -24 -20 -23 0 -35 -18 -16 -26 8 -3 31 5 51 17 33 19 40
20 62 9 13 -8 23 -18 21 -24 -8 -25 -152 -71 -176 -57 -6 4 -10 23 -9 42 3 32
1 34 -32 36 -19 1 -40 -3 -47 -9 -7 -5 -16 -7 -21 -4 -16 10 -50 -23 -56 -56
-23 -112 -19 -120 38 -81 33 21 49 25 113 25 42 0 80 -5 86 -11 6 -6 19 -11
30 -11 11 0 17 -5 14 -12 -2 -7 -11 -12 -21 -10 -9 2 -16 -4 -16 -13 0 -22
-31 -18 -37 5 -3 11 -12 20 -20 20 -12 0 -13 -3 -4 -14 8 -10 9 -21 1 -42 -12
-30 -6 -74 10 -74 5 0 14 -9 21 -21 9 -17 7 -25 -11 -44 -18 -19 -27 -22 -45
-15 -16 6 -29 4 -41 -5 -11 -8 -30 -14 -44 -14 l-25 0 24 19 c17 14 19 20 8
20 -9 0 -23 8 -33 17 -10 11 -29 16 -46 14 -15 -1 -28 2 -28 8 0 6 -12 8 -29
5 -21 -5 -34 -1 -50 15 -12 12 -26 19 -30 16 -5 -2 -14 2 -21 10 -7 8 -18 15
-25 15 -8 0 -16 6 -18 13 -4 9 -8 8 -17 -3 -9 -12 -13 -12 -17 -2 -3 9 -9 10
-17 2 -10 -7 -18 -1 -32 25 -16 30 -30 38 -61 34 -3 0 -10 6 -15 15 -5 9 -15
16 -22 16 -8 0 -17 16 -20 35 -4 19 -13 35 -20 35 -14 0 -41 48 -38 66 1 7 -5
15 -14 18 -14 5 -14 9 -3 23 8 9 9 14 2 10 -7 -5 -17 11 -29 45 -14 44 -18 49
-25 31 -4 -11 -12 -24 -17 -27 -6 -3 2 -19 18 -35 17 -16 32 -44 36 -67 11
-62 101 -242 144 -289 10 -11 22 -33 26 -50 4 -16 19 -46 33 -65 32 -42 39
-85 16 -94 -9 -3 -13 -11 -9 -17 16 -27 -64 -40 -86 -14 -7 8 -18 15 -25 15
-18 0 -72 57 -100 105 -16 27 -27 69 -35 130 -6 50 -18 133 -25 185 -8 52 -16
116 -17 142 -2 36 -7 48 -19 48 -38 0 -127 107 -185 222 -31 62 -25 75 10 20
27 -43 64 -82 78 -82 16 0 7 15 -18 30 -57 33 -106 211 -74 271 14 25 50 25
50 0 0 -26 13 -33 45 -25 19 5 25 12 25 34 0 72 48 27 59 -54 12 -89 21 -77
21 27 0 65 4 97 11 97 6 0 9 9 6 20 -3 11 -2 18 2 16 14 -9 40 77 46 153 2 39
-14 79 -27 66 -2 -3 -2 22 0 55 3 39 0 65 -8 75 -7 8 -9 15 -5 15 4 0 13 -8
20 -17 12 -16 12 -14 8 10 -8 39 12 33 29 -10 l15 -36 7 61 c7 58 24 90 41 74
4 -4 2 3 -4 16 -11 21 -10 22 11 17 20 -5 23 -2 26 30 3 49 33 109 57 114 11
2 33 16 50 32 21 21 38 29 60 27 17 -1 37 2 45 7 35 23 177 24 191 2z m-522
-280 c0 -21 -1 -21 -9 -2 -12 28 -12 37 0 30 6 -3 10 -16 9 -28z m-192 -449
c13 -12 23 -27 23 -35 0 -21 -25 -15 -50 12 -13 14 -29 25 -37 25 -7 0 -13 5
-13 10 0 18 53 10 77 -12z m597 -56 c2 -4 1 -14 -3 -21 -6 -9 -10 -7 -14 8 -5
20 7 29 17 13z m-711 -107 c5 -30 4 -36 -4 -22 -6 10 -12 44 -15 75 -3 47 -2
51 5 22 5 -19 11 -53 14 -75z m1067 -1216 c-5 -13 -16 -32 -22 -41 -11 -15 -9
-20 10 -33 23 -17 30 -59 12 -70 -6 -4 -8 -10 -5 -15 3 -4 -6 -22 -20 -38 -17
-21 -32 -28 -50 -26 -39 4 -126 36 -161 59 -87 57 -144 96 -144 98 0 1 60 2
133 2 126 0 134 1 179 28 26 15 53 37 59 48 14 28 22 18 9 -12z"/>
<path d="M1327 2267 c-3 -7 -23 -19 -46 -25 -68 -21 -77 -71 -24 -141 23 -30
29 -33 66 -28 33 5 43 2 58 -16 9 -12 21 -18 26 -14 4 5 1 14 -7 20 -31 25
-43 63 -36 121 4 31 5 65 1 76 -7 23 -30 27 -38 7z"/>
<path d="M1452 1968 c2 -6 10 -14 16 -16 7 -2 10 2 6 12 -7 18 -28 22 -22 4z"/>
<path d="M1470 1906 c0 -8 5 -18 10 -21 6 -3 10 3 10 14 0 12 -4 21 -10 21 -5
0 -10 -6 -10 -14z"/>
</g>
</svg>
